<svg xmlns="http://www.w3.org/2000/svg"  viewBox="0 0 512 512" width="48px" height="48px"><path fill="#BCBCBC" d="M474.2,161.7c-16.1-46.6-46.7-87.1-91.3-109.6c-50.9-25.7-111-28.1-166.4-19.3 C166.7,40.8,114.2,58.8,76.9,94c-19.6,18.5-34.7,40.9-42.7,66.8c-8,26-10.4,53.1-12.1,80.1c-0.1,1.1-0.4,2-1,2.7 c0,0.2,0.1,0.5,0.1,0.8c0,52.9-1.1,108.3,30.1,153.9c25.3,37.1,64.5,61.5,107.2,73.7c88,25.2,194.2,9.6,264.9-50.8 C497.5,357.9,504.3,248.9,474.2,161.7z M242.9,131.8c0-1.6,0.7-2.9,1.6-3.8c1.2-2.1,2.9-3.9,4.1-6.4c2.5-5.1,4.4-10.5,6.9-15.6 c5.1-10.2,13.8-19.2,22.8-26.1c19.5-14.8,44.6-22.9,69.1-21.5c2.8,0.2,5,1.6,5.4,4.6c1.8,14.8-2.7,29.3-13,40.2 c-5.2,5.5-11.2,10.2-17.7,14c-3.2,1.8-6.4,3.6-9.7,5.1c-2.8,1.3-6.2,2.2-8.7,3.9c-8.9,5.9-19.6,10.4-29.9,12.9 c-7.2,1.7-17.4,3.5-22.6-2.5c-2.8,2.6-8.4,1.8-8.4-3V131.8z M406.7,186.4c-0.3,2.1-1.6,3.3-3.1,3.8c-1,1.4-2.6,2.4-4.7,2.2 c-19.2-1.4-37.3,12.7-36.1,32.7c0.1,2.2-1.2,4.4-3.3,5.1c-6.9,2.4-13.8,6.2-18.6,11.8c-3.8,4.4-8.6,12.5-5.7,18.5 c1.1,2.2,2.8,4.1,4,6.2c1.7,3.1,1.7,5.7,1.4,9.2c-0.6,8.2-2.2,16.7,4.8,22.7c5.4,4.6,11.5,8,15.9,13.8c1.9,2.4,3.2,5,4.6,7.7 c1.3,2.7,3.4,5,4.6,7.7c2.2,5,6.4,9.4,10.6,12.8c2.4,1.9,8.5,7,11.9,4.7c4.5-2.9,9.1,2.3,7.5,6.1c2.2,1.1,3.6,3.5,1.8,6.2 c-11.3,17.6-24.4,35.5-43.9,44.5c-10.3,4.7-20.8,5.9-32,6.4c-14.2,0.7-28.5-0.1-42.7-1.4c-15.1-1.4-30.1-3.4-45.2-4.5 c-11-0.8-21.7-1.5-32.3-4.7c-18.8-5.7-35.6-16.1-48.8-30.6c-27.4-30.2-41.3-71.1-48.5-110.6c-6.2-33.8-8.7-79.5,22.1-102.8 c8.6-6.5,19.3-11.1,30.1-12.1c13.9-1.3,27.3,2.3,40.4,6.4c13.2,4.2,27.5,9.6,41.6,9.6c13.6,0,26.1-4.6,38.5-9.7 c12.5-5.1,25.2-10.7,38.6-13.1c12.7-2.2,25.6-1.4,37.8,2.7c12.4,4.2,24.2,11.3,33.6,20.4C399.4,165.6,408.4,174.6,406.7,186.4z"/><path fill="#D6E5E5" d="M364.6,337.4c-4-5.8-6.4-12.8-10.7-18.4c-5-6.4-12.4-9.7-17.7-15.7c-7.2-8.1-6.3-17.5-5.5-27.6 c0.3-4.3-1.5-5.5-3.5-9c-1.8-3.1-2.7-6.2-2.7-9.9c0-16.6,14-28.9,28.3-34.9c0.6-23.6,21.3-39.6,44.2-39.6 c-0.5-7-8.3-13.2-12.8-17.6c-6.9-6.8-15.8-12.3-24.7-15.9c-18.9-7.7-37.5-5.4-56.2,1.4c-17.8,6.5-35.3,16.3-54.5,17.3 c-19.9,1.1-38.4-6.7-57.2-12c-13.5-3.8-27.6-6.2-41.2-1c-8.4,3.3-16.1,8.4-21.7,15.6c-11,14.1-13.8,32.9-13.5,50.3 c0.3,18.7,3.6,37.2,8.2,55.2c5.1,20.2,12.2,40.2,22.5,58.4c10.2,17.9,23.7,34.6,41.7,45.1c9.2,5.3,19.2,9.2,29.7,11.2 c13.2,2.6,26.7,2.6,40,4c15.9,1.7,31.9,3.7,47.9,4.3c13.1,0.5,27.7,1.2,40.4-2.4c20.9-6.1,34.6-22.9,46.1-40.4 C381.2,356.1,369.8,344.9,364.6,337.4z"/><path fill="#D6E5E5" d="M286.3,86.4c-8,5.9-16.7,13.7-21.2,22.8c-3,5.9-5.1,12.4-8.3,18.3c0.7,0.5,1.4,1.3,1.8,2.3 c0.5,1.2,4.4,1.1,6.4,0.9c4.8-0.6,9.4-1.9,13.9-3.6c4.5-1.6,9-3.5,13.3-5.7c3.1-1.6,6-3.8,9.3-5.2c21.3-8.5,42.1-23.6,41.7-47.9 C323,68.2,302.6,74.5,286.3,86.4z"/><path d="M487.8,168.7c-14.2-46.9-40.9-88.3-82-115.7C359.5,22,300.5,14.5,246,18.5c-51.7,3.8-104.6,17.9-148.6,46 c-21.6,13.8-40.9,31.9-55,53.4c-14.9,22.7-22.5,48.8-26.6,75.4c-2.3,15.1-3.4,30.3-4.4,45.6c-0.1,0.9,0.1,1.8,0.4,2.6 c-0.9,0.9-1.5,2.2-1.5,3.8c0,30.1-0.6,60.4,4.6,90.2c4.8,27.1,15.2,52.9,31.6,75.1c29.2,39.5,73.5,63.3,120.4,75 c88.9,22.2,194.2,3.7,264.5-57.1C505.5,364.4,514.7,257.6,487.8,168.7z M423.4,421.2c-70.8,60.4-176.9,76-264.9,50.8 c-42.7-12.2-81.9-36.6-107.2-73.7c-31.1-45.6-30.1-101-30.1-153.9c0-0.3,0-0.5-0.1-0.8c0.5-0.7,0.9-1.6,1-2.7 c1.7-27,4.1-54.1,12.1-80.1c7.9-25.9,23.1-48.3,42.7-66.8c37.3-35.2,89.8-53.2,139.6-61.1c55.5-8.8,115.5-6.4,166.4,19.3 c44.6,22.5,75.1,63.1,91.3,109.6C504.3,248.9,497.5,357.9,423.4,421.2z"/><path d="M391.6,158.1c-9.4-9.1-21.2-16.2-33.6-20.4c-12.2-4.1-25.1-5-37.8-2.7c-13.4,2.4-26.1,8-38.6,13.1 c-12.4,5.1-24.9,9.7-38.5,9.7c-14.1,0-28.4-5.3-41.6-9.6c-13.1-4.2-26.5-7.7-40.4-6.4c-10.8,1-21.5,5.6-30.1,12.1 c-30.8,23.3-28.3,68.9-22.1,102.8c7.2,39.5,21.1,80.4,48.5,110.6c13.2,14.6,30.1,25,48.8,30.6c10.6,3.2,21.3,3.9,32.3,4.7 c15.1,1.1,30.1,3.1,45.2,4.5c14.2,1.3,28.4,2.1,42.7,1.4c11.2-0.6,21.7-1.7,32-6.4c19.6-8.9,32.6-26.9,43.9-44.5 c1.7-2.7,0.4-5.1-1.8-6.2c1.6-3.9-3-9.1-7.5-6.1c-3.4,2.2-9.4-2.8-11.9-4.7c-4.2-3.3-8.5-7.8-10.6-12.8c-1.2-2.7-3.3-5-4.6-7.7 c-1.3-2.7-2.7-5.3-4.6-7.7c-4.4-5.8-10.5-9.1-15.9-13.8c-7-6-5.5-14.4-4.8-22.7c0.3-3.5,0.3-6.1-1.4-9.2c-1.2-2.2-3-4-4-6.2 c-2.9-6,1.9-14.1,5.7-18.5c4.8-5.6,11.7-9.4,18.6-11.8c2.1-0.7,3.5-2.9,3.3-5.1c-1.3-20,16.9-34.1,36.1-32.7 c2.1,0.2,3.7-0.8,4.7-2.2c1.5-0.4,2.8-1.6,3.1-3.8C408.4,174.6,399.4,165.6,391.6,158.1z M352.8,222c-14.3,6-28.3,18.3-28.3,34.9 c0,3.6,1,6.7,2.7,9.9c2,3.5,3.8,4.7,3.5,9c-0.7,10.1-1.7,19.5,5.5,27.6c5.3,6,12.8,9.2,17.7,15.7c4.3,5.6,6.7,12.6,10.7,18.4 c5.1,7.5,16.5,18.7,27,18.3c-11.5,17.5-25.2,34.3-46.1,40.4c-12.7,3.7-27.4,2.9-40.4,2.4c-16-0.6-31.9-2.6-47.9-4.3 c-13.3-1.4-26.9-1.5-40-4c-10.5-2-20.4-5.9-29.7-11.2c-18.1-10.4-31.5-27.2-41.7-45.1c-10.3-18.1-17.4-38.2-22.5-58.4 c-4.6-18-7.8-36.6-8.2-55.2c-0.3-17.4,2.5-36.3,13.5-50.3c5.6-7.2,13.2-12.3,21.7-15.6c13.5-5.3,27.6-2.8,41.2,1 c18.8,5.3,37.3,13.1,57.2,12c19.2-1,36.7-10.9,54.5-17.3c18.8-6.8,37.3-9.1,56.2-1.4c9,3.7,17.8,9.2,24.7,15.9 c4.5,4.4,12.3,10.6,12.8,17.6C374.1,182.4,353.4,198.4,352.8,222z"/><path d="M352.8,63c-0.4-3-2.6-4.4-5.4-4.6c-24.5-1.4-49.6,6.7-69.1,21.5c-9,6.9-17.7,15.9-22.8,26.1c-2.5,5.1-4.4,10.5-6.9,15.6 c-1.2,2.5-2.9,4.3-4.1,6.4c-1,0.9-1.6,2.2-1.6,3.8v1.8c0,4.8,5.6,5.6,8.4,3c5.2,5.9,15.5,4.2,22.6,2.5c10.3-2.5,21-7,29.9-12.9 c2.6-1.7,5.9-2.6,8.7-3.9c3.3-1.5,6.5-3.3,9.7-5.1c6.5-3.8,12.5-8.5,17.7-14C350.1,92.3,354.6,77.8,352.8,63z M301.5,116.2 c-3.3,1.3-6.2,3.5-9.3,5.2c-4.3,2.2-8.8,4-13.3,5.7c-4.5,1.6-9.1,3-13.9,3.6c-2,0.2-5.9,0.4-6.4-0.9c-0.4-1-1-1.8-1.8-2.3 c3.2-5.8,5.3-12.3,8.3-18.3c4.5-9,13.2-16.9,21.2-22.8c16.3-11.9,36.7-18.3,56.8-18.2C343.6,92.6,322.7,107.6,301.5,116.2z"/></svg>